<svg height="361.5" viewBox="-250 8.5 500 361.5" width="500" xmlns="http://www.w3.org/2000/svg">
<g fill="none" id="nets" stroke="blue" stroke-width="0.8">
<line x1="0" x2="0" y1="190" y2="250"/>
<line x1="0" x2="80" y1="190" y2="190"/>
<line x1="80" x2="80" y1="190" y2="320"/>
<line x1="80" x2="-150" y1="320" y2="320"/>
<line x1="-150" x2="-150" y1="320" y2="162"/>
<line x1="150" x2="150" y1="320" y2="162"/>
<line x1="-30" x2="-80" y1="150" y2="150"/>
<line x1="-80" x2="-80" y1="150" y2="320"/>
<line x1="-80" x2="-150" y1="320" y2="320"/>
<line x1="-150" x2="-150" y1="320" y2="138"/>
<line x1="-150" x2="-150" y1="320" y2="70"/>
<line x1="-150" x2="-200" y1="70" y2="70"/>
<line x1="30" x2="80" y1="150" y2="150"/>
<line x1="80" x2="80" y1="150" y2="320"/>
<line x1="80" x2="150" y1="320" y2="320"/>
<line x1="150" x2="150" y1="320" y2="138"/>
<line x1="150" x2="150" y1="320" y2="70"/>
<line x1="150" x2="200" y1="70" y2="70"/>
</g>
<g transform="translate(-150 70) rotate(0 0 0)">
<g fill="black" stroke="black" stroke-width="1">
<line x1="0" x2="0" y1="0" y2="-4"/>
<path d="M-5,-4 L5,-4 L0,-19 z"/>
</g>
<text alignment-baseline="hanging" fill="black" font-family="monospace" font-size="10" text-anchor="middle" x="0" y="15.5">
VIN
</text>
</g>
<g transform="translate(150 70) rotate(0 0 0)">
<g fill="black" stroke="black" stroke-width="1">
<line x1="0" x2="0" y1="0" y2="-4"/>
<path d="M-5,-4 L5,-4 L0,-19 z"/>
</g>
<text alignment-baseline="hanging" fill="black" font-family="monospace" font-size="10" text-anchor="middle" x="0" y="15.5">
VOUT
</text>
</g>
<g transform="translate(-150 150) rotate(90 0 0)">
<g fill="none" stroke="black" stroke-width="1">
<line x1="-12" x2="-2" y1="0" y2="0"/>
<line x1="2" x2="12" y1="0" y2="0"/>
<line x1="-2" x2="-2" y1="-5" y2="5"/>
<line x1="2" x2="2" y1="-5" y2="5"/>
</g>
<text alignment-baseline="hanging" fill="black" font-family="monospace" font-size="10" text-anchor="middle" x="0" y="4">
C_IN
</text>
</g>
<g transform="translate(0 250) rotate(0 0 0)">
<g fill="black" stroke="black" stroke-width="1">
<line x1="0" x2="0" y1="0" y2="4"/>
<line x1="-10" x2="10" y1="4" y2="4"/>
<line x1="-6" x2="6" y1="8" y2="8"/>
<line x1="-3" x2="3" y1="12" y2="12"/>
</g>
<text alignment-baseline="hanging" fill="black" font-family="monospace" font-size="10" text-anchor="middle" x="0" y="-10">
GND
</text>
</g>
<g transform="translate(0 150) rotate(0 0 0)">
<g fill="none" stroke="black" stroke-width="1">
<rect fill="white" height="80" width="60" x="-30" y="-40"/>
<text alignment-baseline="central" fill="black" font-family="monospace" font-size="10" stroke="none" text-anchor="middle" x="0" y="-45">
VoltageRegulator
</text>
<line stroke="black" stroke-width="1" x1="-30" x2="-40" y1="0" y2="0"/>
<text alignment-baseline="central" fill="black" font-family="monospace" font-size="8" text-anchor="end" x="-40" y="0">
VIN
</text>
<line stroke="black" stroke-width="1" x1="30" x2="40" y1="0" y2="0"/>
<text alignment-baseline="central" fill="black" font-family="monospace" font-size="8" text-anchor="start" x="40" y="0">
VOUT
</text>
<line stroke="black" stroke-width="1" x1="0" x2="0" y1="40" y2="50"/>
<text alignment-baseline="central" fill="black" font-family="monospace" font-size="8" text-anchor="start" x="0" y="50">
GND
</text>
</g>
<text alignment-baseline="hanging" fill="black" font-family="monospace" font-size="10" text-anchor="middle" x="0" y="4">
U1
</text>
</g>
<g transform="translate(150 150) rotate(90 0 0)">
<g fill="none" stroke="black" stroke-width="1">
<line x1="-12" x2="-2" y1="0" y2="0"/>
<line x1="2" x2="12" y1="0" y2="0"/>
<line x1="-2" x2="-2" y1="-5" y2="5"/>
<line x1="2" x2="2" y1="-5" y2="5"/>
</g>
<text alignment-baseline="hanging" fill="black" font-family="monospace" font-size="10" text-anchor="middle" x="0" y="4">
C_OUT
</text>
</g>
</svg>