<svg height="410" viewBox="-120 -55 215 410" width="215" xmlns="http://www.w3.org/2000/svg">
  <g id="coarse-grid-tiles" stroke="lightblue" stroke-width="0.2" fill-opacity="0.1">
    <rect x="-120.00" y="-55.00" width="20.00" height="20.75" fill="rgb(0, 255, 255)" />
    <rect x="-100.00" y="-55.00" width="20.00" height="20.75" fill="rgb(0, 255, 255)" />
    <rect x="-80.00" y="-55.00" width="20.00" height="20.75" fill="rgb(0, 255, 255)" />
    <rect x="-60.00" y="-55.00" width="20.00" height="20.75" fill="rgb(0, 255, 255)" />
    <rect x="-40.00" y="-55.00" width="20.00" height="20.75" fill="rgb(0, 255, 255)" />
    <rect x="-20.00" y="-55.00" width="20.00" height="20.75" fill="rgb(0, 255, 255)" />
    <rect x="0.00" y="-55.00" width="20.00" height="20.75" fill="rgb(0, 255, 255)" />
    <rect x="20.00" y="-55.00" width="20.00" height="20.75" fill="rgb(0, 255, 255)" />
    <rect x="40.00" y="-55.00" width="20.00" height="20.75" fill="rgb(0, 255, 255)" />
    <rect x="60.00" y="-55.00" width="20.00" height="20.75" fill="rgb(0, 255, 255)" />
    <rect x="80.00" y="-55.00" width="20.00" height="20.75" fill="rgb(0, 255, 255)" />
    <rect x="-120.00" y="-34.25" width="20.00" height="20.75" fill="rgb(0, 255, 255)" />
    <rect x="-100.00" y="-34.25" width="20.00" height="20.75" fill="rgb(0, 255, 255)" />
    <rect x="-80.00" y="-34.25" width="20.00" height="20.75" fill="rgb(0, 255, 255)" />
    <rect x="-60.00" y="-34.25" width="20.00" height="20.75" fill="rgb(0, 255, 255)" />
    <rect x="-40.00" y="-34.25" width="20.00" height="20.75" fill="rgb(0, 255, 255)" />
    <rect x="-20.00" y="-34.25" width="20.00" height="20.75" fill="rgb(0, 255, 255)" />
    <rect x="0.00" y="-34.25" width="20.00" height="20.75" fill="rgb(0, 255, 255)" />
    <rect x="20.00" y="-34.25" width="20.00" height="20.75" fill="rgb(0, 255, 255)" />
    <rect x="40.00" y="-34.25" width="20.00" height="20.75" fill="rgb(0, 255, 255)" />
    <rect x="60.00" y="-34.25" width="20.00" height="20.75" fill="rgb(0, 255, 255)" />
    <rect x="80.00" y="-34.25" width="20.00" height="20.75" fill="rgb(0, 255, 255)" />
    <rect x="-120.00" y="-13.50" width="20.00" height="20.75" fill="rgb(0, 255, 255)" />
    <rect x="-100.00" y="-13.50" width="20.00" height="20.75" fill="rgb(0, 255, 255)" />
    <rect x="-80.00" y="-13.50" width="20.00" height="20.75" fill="rgb(0, 255, 255)" />
    <rect x="-60.00" y="-13.50" width="20.00" height="20.75" fill="rgb(0, 255, 255)" />
    <rect x="-40.00" y="-13.50" width="20.00" height="20.75" fill="rgb(0, 255, 255)" />
    <rect x="-20.00" y="-13.50" width="20.00" height="20.75" fill="rgb(0, 255, 255)" />
    <rect x="0.00" y="-13.50" width="20.00" height="20.75" fill="rgb(0, 255, 255)" />
    <rect x="20.00" y="-13.50" width="20.00" height="20.75" fill="rgb(0, 255, 255)" />
    <rect x="40.00" y="-13.50" width="20.00" height="20.75" fill="rgb(0, 255, 255)" />
    <rect x="60.00" y="-13.50" width="20.00" height="20.75" fill="rgb(0, 255, 255)" />
    <rect x="80.00" y="-13.50" width="20.00" height="20.75" fill="rgb(0, 255, 255)" />
    <rect x="-120.00" y="7.25" width="20.00" height="20.75" fill="rgb(0, 255, 255)" />
    <rect x="-100.00" y="7.25" width="20.00" height="20.75" fill="rgb(0, 255, 255)" />
    <rect x="-80.00" y="7.25" width="20.00" height="20.75" fill="rgb(0, 255, 255)" />
    <rect x="-60.00" y="7.25" width="20.00" height="20.75" fill="rgb(0, 255, 255)" />
    <rect x="-40.00" y="7.25" width="20.00" height="20.75" fill="rgb(0, 255, 255)" />
    <rect x="-20.00" y="7.25" width="20.00" height="20.75" fill="rgb(0, 255, 255)" />
    <rect x="0.00" y="7.25" width="20.00" height="20.75" fill="rgb(0, 255, 255)" />
    <rect x="20.00" y="7.25" width="20.00" height="20.75" fill="rgb(0, 255, 255)" />
    <rect x="40.00" y="7.25" width="20.00" height="20.75" fill="rgb(0, 255, 255)" />
    <rect x="60.00" y="7.25" width="20.00" height="20.75" fill="rgb(0, 255, 255)" />
    <rect x="80.00" y="7.25" width="20.00" height="20.75" fill="rgb(0, 255, 255)" />
    <rect x="-120.00" y="28.00" width="20.00" height="20.75" fill="rgb(0, 255, 255)" />
    <rect x="-100.00" y="28.00" width="20.00" height="20.75" fill="rgb(0, 255, 255)" />
    <rect x="-80.00" y="28.00" width="20.00" height="20.75" fill="rgb(0, 255, 255)" />
    <rect x="-60.00" y="28.00" width="20.00" height="20.75" fill="rgb(0, 255, 255)" />
    <rect x="-40.00" y="28.00" width="20.00" height="20.75" fill="rgb(0, 255, 255)" />
    <rect x="-20.00" y="28.00" width="20.00" height="20.75" fill="rgb(0, 255, 255)" />
    <rect x="0.00" y="28.00" width="20.00" height="20.75" fill="rgb(0, 255, 255)" />
    <rect x="20.00" y="28.00" width="20.00" height="20.75" fill="rgb(0, 255, 255)" />
    <rect x="40.00" y="28.00" width="20.00" height="20.75" fill="rgb(0, 255, 255)" />
    <rect x="60.00" y="28.00" width="20.00" height="20.75" fill="rgb(0, 255, 255)" />
    <rect x="80.00" y="28.00" width="20.00" height="20.75" fill="rgb(0, 255, 255)" />
    <rect x="-120.00" y="48.75" width="20.00" height="20.75" fill="rgb(0, 255, 255)" />
    <rect x="-100.00" y="48.75" width="20.00" height="20.75" fill="rgb(0, 255, 255)" />
    <rect x="-80.00" y="48.75" width="20.00" height="20.75" fill="rgb(0, 255, 255)" />
    <rect x="-60.00" y="48.75" width="20.00" height="20.75" fill="rgb(0, 255, 255)" />
    <rect x="-40.00" y="48.75" width="20.00" height="20.75" fill="rgb(0, 255, 255)" />
    <rect x="-20.00" y="48.75" width="20.00" height="20.75" fill="rgb(0, 255, 255)" />
    <rect x="0.00" y="48.75" width="20.00" height="20.75" fill="rgb(0, 255, 255)" />
    <rect x="20.00" y="48.75" width="20.00" height="20.75" fill="rgb(0, 255, 255)" />
    <rect x="40.00" y="48.75" width="20.00" height="20.75" fill="rgb(0, 255, 255)" />
    <rect x="60.00" y="48.75" width="20.00" height="20.75" fill="rgb(0, 255, 255)" />
    <rect x="80.00" y="48.75" width="20.00" height="20.75" fill="rgb(0, 255, 255)" />
    <rect x="-120.00" y="69.50" width="20.00" height="20.75" fill="rgb(0, 255, 255)" />
    <rect x="-100.00" y="69.50" width="20.00" height="20.75" fill="rgb(0, 255, 255)" />
    <rect x="-80.00" y="69.50" width="20.00" height="20.75" fill="rgb(0, 255, 255)" />
    <rect x="-60.00" y="69.50" width="20.00" height="20.75" fill="rgb(0, 255, 255)" />
    <rect x="-40.00" y="69.50" width="20.00" height="20.75" fill="rgb(0, 255, 255)" />
    <rect x="-20.00" y="69.50" width="20.00" height="20.75" fill="rgb(0, 255, 255)" />
    <rect x="0.00" y="69.50" width="20.00" height="20.75" fill="rgb(0, 255, 255)" />
    <rect x="20.00" y="69.50" width="20.00" height="20.75" fill="rgb(0, 255, 255)" />
    <rect x="40.00" y="69.50" width="20.00" height="20.75" fill="rgb(0, 255, 255)" />
    <rect x="60.00" y="69.50" width="20.00" height="20.75" fill="rgb(0, 255, 255)" />
    <rect x="80.00" y="69.50" width="20.00" height="20.75" fill="rgb(0, 255, 255)" />
    <rect x="-120.00" y="90.25" width="20.00" height="20.75" fill="rgb(0, 255, 255)" />
    <rect x="-100.00" y="90.25" width="20.00" height="20.75" fill="rgb(0, 255, 255)" />
    <rect x="-80.00" y="90.25" width="20.00" height="20.75" fill="rgb(0, 255, 255)" />
    <rect x="-60.00" y="90.25" width="20.00" height="20.75" fill="rgb(0, 255, 255)" />
    <rect x="-40.00" y="90.25" width="20.00" height="20.75" fill="rgb(0, 255, 255)" />
    <rect x="-20.00" y="90.25" width="20.00" height="20.75" fill="rgb(0, 255, 255)" />
    <rect x="0.00" y="90.25" width="20.00" height="20.75" fill="rgb(0, 255, 255)" />
    <rect x="20.00" y="90.25" width="20.00" height="20.75" fill="rgb(0, 255, 255)" />
    <rect x="40.00" y="90.25" width="20.00" height="20.75" fill="rgb(0, 255, 255)" />
    <rect x="60.00" y="90.25" width="20.00" height="20.75" fill="rgb(0, 255, 255)" />
    <rect x="80.00" y="90.25" width="20.00" height="20.75" fill="rgb(0, 255, 255)" />
    <rect x="-120.00" y="111.00" width="20.00" height="20.75" fill="rgb(0, 255, 255)" />
    <rect x="-100.00" y="111.00" width="20.00" height="20.75" fill="rgb(0, 255, 255)" />
    <rect x="-80.00" y="111.00" width="20.00" height="20.75" fill="rgb(0, 255, 255)" />
    <rect x="-60.00" y="111.00" width="20.00" height="20.75" fill="rgb(0, 255, 255)" />
    <rect x="-40.00" y="111.00" width="20.00" height="20.75" fill="rgb(0, 255, 255)" />
    <rect x="-20.00" y="111.00" width="20.00" height="20.75" fill="rgb(0, 255, 255)" />
    <rect x="0.00" y="111.00" width="20.00" height="20.75" fill="rgb(0, 255, 255)" />
    <rect x="20.00" y="111.00" width="20.00" height="20.75" fill="rgb(0, 255, 255)" />
    <rect x="40.00" y="111.00" width="20.00" height="20.75" fill="rgb(0, 255, 255)" />
    <rect x="60.00" y="111.00" width="20.00" height="20.75" fill="rgb(0, 255, 255)" />
    <rect x="80.00" y="111.00" width="20.00" height="20.75" fill="rgb(0, 255, 255)" />
    <rect x="-120.00" y="131.75" width="20.00" height="20.75" fill="rgb(0, 255, 255)" />
    <rect x="-100.00" y="131.75" width="20.00" height="20.75" fill="rgb(0, 255, 255)" />
    <rect x="-80.00" y="131.75" width="20.00" height="20.75" fill="rgb(0, 255, 255)" />
    <rect x="-60.00" y="131.75" width="20.00" height="20.75" fill="rgb(0, 255, 255)" />
    <rect x="-40.00" y="131.75" width="20.00" height="20.75" fill="rgb(0, 255, 255)" />
    <rect x="-20.00" y="131.75" width="20.00" height="20.75" fill="rgb(0, 255, 255)" />
    <rect x="0.00" y="131.75" width="20.00" height="20.75" fill="rgb(0, 255, 255)" />
    <rect x="20.00" y="131.75" width="20.00" height="20.75" fill="rgb(0, 255, 255)" />
    <rect x="40.00" y="131.75" width="20.00" height="20.75" fill="rgb(0, 255, 255)" />
    <rect x="60.00" y="131.75" width="20.00" height="20.75" fill="rgb(0, 255, 255)" />
    <rect x="80.00" y="131.75" width="20.00" height="20.75" fill="rgb(0, 255, 255)" />
    <rect x="-120.00" y="152.50" width="20.00" height="20.75" fill="rgb(0, 255, 255)" />
    <rect x="-100.00" y="152.50" width="20.00" height="20.75" fill="rgb(0, 255, 255)" />
    <rect x="-80.00" y="152.50" width="20.00" height="20.75" fill="rgb(0, 255, 255)" />
    <rect x="-60.00" y="152.50" width="20.00" height="20.75" fill="rgb(0, 255, 255)" />
    <rect x="-40.00" y="152.50" width="20.00" height="20.75" fill="rgb(0, 255, 255)" />
    <rect x="-20.00" y="152.50" width="20.00" height="20.75" fill="rgb(0, 255, 255)" />
    <rect x="0.00" y="152.50" width="20.00" height="20.75" fill="rgb(0, 255, 255)" />
    <rect x="20.00" y="152.50" width="20.00" height="20.75" fill="rgb(0, 255, 255)" />
    <rect x="40.00" y="152.50" width="20.00" height="20.75" fill="rgb(0, 255, 255)" />
    <rect x="60.00" y="152.50" width="20.00" height="20.75" fill="rgb(0, 255, 255)" />
    <rect x="80.00" y="152.50" width="20.00" height="20.75" fill="rgb(0, 255, 255)" />
    <rect x="-120.00" y="173.25" width="20.00" height="20.75" fill="rgb(0, 255, 255)" />
    <rect x="-100.00" y="173.25" width="20.00" height="20.75" fill="rgb(0, 255, 255)" />
    <rect x="-80.00" y="173.25" width="20.00" height="20.75" fill="rgb(0, 255, 255)" />
    <rect x="-60.00" y="173.25" width="20.00" height="20.75" fill="rgb(0, 255, 255)" />
    <rect x="-40.00" y="173.25" width="20.00" height="20.75" fill="rgb(0, 255, 255)" />
    <rect x="-20.00" y="173.25" width="20.00" height="20.75" fill="rgb(0, 255, 255)" />
    <rect x="0.00" y="173.25" width="20.00" height="20.75" fill="rgb(0, 255, 255)" />
    <rect x="20.00" y="173.25" width="20.00" height="20.75" fill="rgb(0, 255, 255)" />
    <rect x="40.00" y="173.25" width="20.00" height="20.75" fill="rgb(0, 255, 255)" />
    <rect x="60.00" y="173.25" width="20.00" height="20.75" fill="rgb(0, 255, 255)" />
    <rect x="80.00" y="173.25" width="20.00" height="20.75" fill="rgb(0, 255, 255)" />
    <rect x="-120.00" y="194.00" width="20.00" height="20.75" fill="rgb(0, 255, 255)" />
    <rect x="-100.00" y="194.00" width="20.00" height="20.75" fill="rgb(0, 255, 255)" />
    <rect x="-80.00" y="194.00" width="20.00" height="20.75" fill="rgb(0, 255, 255)" />
    <rect x="-60.00" y="194.00" width="20.00" height="20.75" fill="rgb(0, 255, 255)" />
    <rect x="-40.00" y="194.00" width="20.00" height="20.75" fill="rgb(0, 255, 255)" />
    <rect x="-20.00" y="194.00" width="20.00" height="20.75" fill="rgb(0, 255, 255)" />
    <rect x="0.00" y="194.00" width="20.00" height="20.75" fill="rgb(0, 255, 255)" />
    <rect x="20.00" y="194.00" width="20.00" height="20.75" fill="rgb(0, 255, 255)" />
    <rect x="40.00" y="194.00" width="20.00" height="20.75" fill="rgb(0, 255, 255)" />
    <rect x="60.00" y="194.00" width="20.00" height="20.75" fill="rgb(0, 255, 255)" />
    <rect x="80.00" y="194.00" width="20.00" height="20.75" fill="rgb(0, 255, 255)" />
    <rect x="-120.00" y="214.75" width="20.00" height="20.75" fill="rgb(0, 255, 255)" />
    <rect x="-100.00" y="214.75" width="20.00" height="20.75" fill="rgb(0, 255, 255)" />
    <rect x="-80.00" y="214.75" width="20.00" height="20.75" fill="rgb(0, 255, 255)" />
    <rect x="-60.00" y="214.75" width="20.00" height="20.75" fill="rgb(0, 255, 255)" />
    <rect x="-40.00" y="214.75" width="20.00" height="20.75" fill="rgb(0, 255, 255)" />
    <rect x="-20.00" y="214.75" width="20.00" height="20.75" fill="rgb(0, 255, 255)" />
    <rect x="0.00" y="214.75" width="20.00" height="20.75" fill="rgb(0, 255, 255)" />
    <rect x="20.00" y="214.75" width="20.00" height="20.75" fill="rgb(0, 255, 255)" />
    <rect x="40.00" y="214.75" width="20.00" height="20.75" fill="rgb(0, 255, 255)" />
    <rect x="60.00" y="214.75" width="20.00" height="20.75" fill="rgb(0, 255, 255)" />
    <rect x="80.00" y="214.75" width="20.00" height="20.75" fill="rgb(0, 255, 255)" />
    <rect x="-120.00" y="235.50" width="20.00" height="20.75" fill="rgb(0, 255, 255)" />
    <rect x="-100.00" y="235.50" width="20.00" height="20.75" fill="rgb(0, 255, 255)" />
    <rect x="-80.00" y="235.50" width="20.00" height="20.75" fill="rgb(0, 255, 255)" />
    <rect x="-60.00" y="235.50" width="20.00" height="20.75" fill="rgb(0, 255, 255)" />
    <rect x="-40.00" y="235.50" width="20.00" height="20.75" fill="rgb(0, 255, 255)" />
    <rect x="-20.00" y="235.50" width="20.00" height="20.75" fill="rgb(0, 255, 255)" />
    <rect x="0.00" y="235.50" width="20.00" height="20.75" fill="rgb(0, 255, 255)" />
    <rect x="20.00" y="235.50" width="20.00" height="20.75" fill="rgb(0, 255, 255)" />
    <rect x="40.00" y="235.50" width="20.00" height="20.75" fill="rgb(0, 255, 255)" />
    <rect x="60.00" y="235.50" width="20.00" height="20.75" fill="rgb(0, 255, 255)" />
    <rect x="80.00" y="235.50" width="20.00" height="20.75" fill="rgb(0, 255, 255)" />
    <rect x="-120.00" y="256.25" width="20.00" height="20.75" fill="rgb(0, 255, 255)" />
    <rect x="-100.00" y="256.25" width="20.00" height="20.75" fill="rgb(0, 255, 255)" />
    <rect x="-80.00" y="256.25" width="20.00" height="20.75" fill="rgb(0, 255, 255)" />
    <rect x="-60.00" y="256.25" width="20.00" height="20.75" fill="rgb(0, 255, 255)" />
    <rect x="-40.00" y="256.25" width="20.00" height="20.75" fill="rgb(0, 255, 255)" />
    <rect x="-20.00" y="256.25" width="20.00" height="20.75" fill="rgb(0, 255, 255)" />
    <rect x="0.00" y="256.25" width="20.00" height="20.75" fill="rgb(0, 255, 255)" />
    <rect x="20.00" y="256.25" width="20.00" height="20.75" fill="rgb(0, 255, 255)" />
    <rect x="40.00" y="256.25" width="20.00" height="20.75" fill="rgb(0, 255, 255)" />
    <rect x="60.00" y="256.25" width="20.00" height="20.75" fill="rgb(0, 255, 255)" />
    <rect x="80.00" y="256.25" width="20.00" height="20.75" fill="rgb(0, 255, 255)" />
    <rect x="-120.00" y="277.00" width="20.00" height="20.75" fill="rgb(0, 255, 255)" />
    <rect x="-100.00" y="277.00" width="20.00" height="20.75" fill="rgb(0, 255, 255)" />
    <rect x="-80.00" y="277.00" width="20.00" height="20.75" fill="rgb(0, 255, 255)" />
    <rect x="-60.00" y="277.00" width="20.00" height="20.75" fill="rgb(0, 255, 255)" />
    <rect x="-40.00" y="277.00" width="20.00" height="20.75" fill="rgb(0, 255, 255)" />
    <rect x="-20.00" y="277.00" width="20.00" height="20.75" fill="rgb(0, 255, 255)" />
    <rect x="0.00" y="277.00" width="20.00" height="20.75" fill="rgb(0, 255, 255)" />
    <rect x="20.00" y="277.00" width="20.00" height="20.75" fill="rgb(0, 255, 255)" />
    <rect x="40.00" y="277.00" width="20.00" height="20.75" fill="rgb(0, 255, 255)" />
    <rect x="60.00" y="277.00" width="20.00" height="20.75" fill="rgb(0, 255, 255)" />
    <rect x="80.00" y="277.00" width="20.00" height="20.75" fill="rgb(0, 255, 255)" />
    <rect x="-120.00" y="297.75" width="20.00" height="20.75" fill="rgb(0, 255, 255)" />
    <rect x="-100.00" y="297.75" width="20.00" height="20.75" fill="rgb(0, 255, 255)" />
    <rect x="-80.00" y="297.75" width="20.00" height="20.75" fill="rgb(0, 255, 255)" />
    <rect x="-60.00" y="297.75" width="20.00" height="20.75" fill="rgb(0, 255, 255)" />
    <rect x="-40.00" y="297.75" width="20.00" height="20.75" fill="rgb(0, 255, 255)" />
    <rect x="-20.00" y="297.75" width="20.00" height="20.75" fill="rgb(0, 255, 255)" />
    <rect x="0.00" y="297.75" width="20.00" height="20.75" fill="rgb(0, 255, 255)" />
    <rect x="20.00" y="297.75" width="20.00" height="20.75" fill="rgb(0, 255, 255)" />
    <rect x="40.00" y="297.75" width="20.00" height="20.75" fill="rgb(0, 255, 255)" />
    <rect x="60.00" y="297.75" width="20.00" height="20.75" fill="rgb(0, 255, 255)" />
    <rect x="80.00" y="297.75" width="20.00" height="20.75" fill="rgb(0, 255, 255)" />
    <rect x="-120.00" y="318.50" width="20.00" height="20.75" fill="rgb(0, 255, 255)" />
    <rect x="-100.00" y="318.50" width="20.00" height="20.75" fill="rgb(0, 255, 255)" />
    <rect x="-80.00" y="318.50" width="20.00" height="20.75" fill="rgb(0, 255, 255)" />
    <rect x="-60.00" y="318.50" width="20.00" height="20.75" fill="rgb(0, 255, 255)" />
    <rect x="-40.00" y="318.50" width="20.00" height="20.75" fill="rgb(0, 255, 255)" />
    <rect x="-20.00" y="318.50" width="20.00" height="20.75" fill="rgb(0, 255, 255)" />
    <rect x="0.00" y="318.50" width="20.00" height="20.75" fill="rgb(0, 255, 255)" />
    <rect x="20.00" y="318.50" width="20.00" height="20.75" fill="rgb(0, 255, 255)" />
    <rect x="40.00" y="318.50" width="20.00" height="20.75" fill="rgb(0, 255, 255)" />
    <rect x="60.00" y="318.50" width="20.00" height="20.75" fill="rgb(0, 255, 255)" />
    <rect x="80.00" y="318.50" width="20.00" height="20.75" fill="rgb(0, 255, 255)" />
    <rect x="-120.00" y="339.25" width="20.00" height="20.75" fill="rgb(0, 255, 255)" />
    <rect x="-100.00" y="339.25" width="20.00" height="20.75" fill="rgb(0, 255, 255)" />
    <rect x="-80.00" y="339.25" width="20.00" height="20.75" fill="rgb(0, 255, 255)" />
    <rect x="-60.00" y="339.25" width="20.00" height="20.75" fill="rgb(0, 255, 255)" />
    <rect x="-40.00" y="339.25" width="20.00" height="20.75" fill="rgb(0, 255, 255)" />
    <rect x="-20.00" y="339.25" width="20.00" height="20.75" fill="rgb(0, 255, 255)" />
    <rect x="0.00" y="339.25" width="20.00" height="20.75" fill="rgb(0, 255, 255)" />
    <rect x="20.00" y="339.25" width="20.00" height="20.75" fill="rgb(0, 255, 255)" />
    <rect x="40.00" y="339.25" width="20.00" height="20.75" fill="rgb(0, 255, 255)" />
    <rect x="60.00" y="339.25" width="20.00" height="20.75" fill="rgb(0, 255, 255)" />
    <rect x="80.00" y="339.25" width="20.00" height="20.75" fill="rgb(0, 255, 255)" />
  </g>
  <g id="global-paths" stroke="purple" stroke-width="0.8" stroke-dasharray="2,2" fill="none">
    <path d="M -10.00 142.12 L 10.00 142.12 L 10.00 162.88 L 10.00 183.62 L 10.00 204.38 L 10.00 225.12 L 10.00 245.88 L 10.00 266.62 L 10.00 287.38 L 10.00 308.12" />
    <path d="M -70.00 142.12 L -50.00 142.12 L -30.00 142.12 L -10.00 142.12 L -10.00 162.88 L -10.00 183.62 L -10.00 204.38 L -10.00 225.12 L -10.00 245.88 L -10.00 266.62 L -10.00 287.38 L -10.00 308.12" />
    <path d="M -70.00 59.12 L -50.00 59.12 L -30.00 59.12 L -10.00 59.12 L -10.00 38.38 L -10.00 17.62 L -10.00 -3.12" />
  </g>

<g fill="none" id="nets" stroke="blue" stroke-width="0.8">
<line x1="-70" x2="-70" y1="135" y2="135.25"/>
<line x1="-70" x2="-69.75" y1="135.25" y2="135.25"/>
<line x1="-69.75" x2="-15.25" y1="135.25" y2="135.25"/>
<line x1="-15.25" x2="-15.25" y1="135.25" y2="300.25"/>
<line x1="-15.25" x2="-11.75" y1="300.25" y2="300.25"/>
<line x1="-11.75" x2="-12" y1="300.25" y2="300.25"/>
<line x1="-12" x2="-12" y1="300.25" y2="300"/>
<line x1="-10" x2="-10" y1="135" y2="135.25"/>
<line x1="-10" x2="-9.75" y1="135.25" y2="135.25"/>
<line x1="-9.75" x2="15.75" y1="135.25" y2="135.25"/>
<line x1="15.75" x2="15.75" y1="135.25" y2="300.25"/>
<line x1="15.75" x2="12.25" y1="300.25" y2="300.25"/>
<line x1="12.25" x2="12" y1="300.25" y2="300.25"/>
<line x1="12" x2="12" y1="300.25" y2="300"/>
<line x1="-70" x2="-70" y1="65" y2="65.25"/>
<line x1="-70" x2="-69.75" y1="65.25" y2="65.25"/>
<line x1="-69.75" x2="-15.25" y1="65.25" y2="65.25"/>
<line x1="-15.25" x2="-15.25" y1="65.25" y2="0.25"/>
<line x1="-15.25" x2="-11.75" y1="0.25" y2="0.25"/>
<line x1="-11.75" x2="-12" y1="0.25" y2="0.25"/>
<line x1="-12" x2="-12" y1="0.25" y2="0"/>
</g>
<g transform="translate(-40 100) rotate(0 0 0)">
<g fill="none" stroke="black" stroke-width="1">
<rect fill="white" height="80" width="60" x="-30" y="-40"/>
<text alignment-baseline="central" fill="black" font-family="monospace" font-size="10" stroke="none" text-anchor="middle" x="0" y="-45">
VoltageRegulator
</text>
<line stroke="black" stroke-width="1" x1="-30" x2="-40" y1="0" y2="0"/>
<text alignment-baseline="central" fill="black" font-family="monospace" font-size="8" text-anchor="end" x="-43" y="0">
VIN
</text>
<line stroke="black" stroke-width="1" x1="30" x2="40" y1="0" y2="0"/>
<text alignment-baseline="central" fill="black" font-family="monospace" font-size="8" text-anchor="start" x="43" y="0">
VOUT
</text>
<line stroke="black" stroke-width="1" x1="0" x2="10" y1="40" y2="40"/>
<text alignment-baseline="central" fill="black" font-family="monospace" font-size="8" text-anchor="start" x="13" y="40">
GND
</text>
<line stroke="black" stroke-width="1" x1="0" x2="10" y1="-40" y2="-40"/>
<text alignment-baseline="central" fill="black" font-family="monospace" font-size="8" text-anchor="start" x="13" y="-40">
EN
</text>
</g>
<text alignment-baseline="hanging" fill="black" font-family="monospace" font-size="10" text-anchor="middle" x="0" y="4">
U1
</text>
</g>
<g transform="translate(-40 200) rotate(0 0 0)">
<g fill="black" stroke="black" stroke-width="1">
<line x1="0" x2="0" y1="0" y2="4"/>
<line x1="-10" x2="10" y1="4" y2="4"/>
<line x1="-6" x2="6" y1="8" y2="8"/>
<line x1="-3" x2="3" y1="12" y2="12"/>
</g>
<text alignment-baseline="hanging" fill="black" font-family="monospace" font-size="10" text-anchor="middle" x="0" y="-10">
GND
</text>
</g>
<g transform="translate(40 100) rotate(0 0 0)">
<g fill="black" stroke="black" stroke-width="1">
<line x1="0" x2="0" y1="0" y2="-4"/>
<path d="M-5,-4 L5,-4 L0,-19 z"/>
</g>
<text alignment-baseline="hanging" fill="black" font-family="monospace" font-size="10" text-anchor="middle" x="0" y="15.5">
VOUT
</text>
</g>
<g transform="translate(0 0) rotate(0 0 0)">
<g fill="none" stroke="black" stroke-width="1">
<line x1="-12" x2="-2" y1="0" y2="0"/>
<line x1="2" x2="12" y1="0" y2="0"/>
<line x1="-2" x2="-2" y1="-5" y2="5"/>
<line x1="2" x2="2" y1="-5" y2="5"/>
</g>
<text alignment-baseline="hanging" fill="black" font-family="monospace" font-size="10" text-anchor="middle" x="0" y="4">
C_OUT
</text>
</g>
<g transform="translate(40 200) rotate(0 0 0)">
<g fill="black" stroke="black" stroke-width="1">
<line x1="0" x2="0" y1="0" y2="-4"/>
<path d="M-5,-4 L5,-4 L0,-19 z"/>
</g>
<text alignment-baseline="hanging" fill="black" font-family="monospace" font-size="10" text-anchor="middle" x="0" y="15.5">
VIN
</text>
</g>
<g transform="translate(0 300) rotate(0 0 0)">
<g fill="none" stroke="black" stroke-width="1">
<line x1="-12" x2="-2" y1="0" y2="0"/>
<line x1="2" x2="12" y1="0" y2="0"/>
<line x1="-2" x2="-2" y1="-5" y2="5"/>
<line x1="2" x2="2" y1="-5" y2="5"/>
</g>
<text alignment-baseline="hanging" fill="black" font-family="monospace" font-size="10" text-anchor="middle" x="0" y="4">
C_IN
</text>
</g>
</svg>