<svg height="297.5" viewBox="-170.25 -51.5 322.5 297.5" width="322.5" xmlns="http://www.w3.org/2000/svg">
  <g id="coarse-grid-tiles" stroke="lightblue" stroke-width="0.2" fill-opacity="0.1">
    <rect x="-170.00" y="-51.50" width="16.10" height="16.53" fill="rgb(0, 255, 255)" />
    <rect x="-153.90" y="-51.50" width="16.10" height="16.53" fill="rgb(0, 255, 255)" />
    <rect x="-137.80" y="-51.50" width="16.10" height="16.53" fill="rgb(0, 255, 255)" />
    <rect x="-121.70" y="-51.50" width="16.10" height="16.53" fill="rgb(0, 255, 255)" />
    <rect x="-105.60" y="-51.50" width="16.10" height="16.53" fill="rgb(0, 255, 255)" />
    <rect x="-89.50" y="-51.50" width="16.10" height="16.53" fill="rgb(0, 255, 255)" />
    <rect x="-73.40" y="-51.50" width="16.10" height="16.53" fill="rgb(0, 255, 255)" />
    <rect x="-57.30" y="-51.50" width="16.10" height="16.53" fill="rgb(0, 255, 255)" />
    <rect x="-41.20" y="-51.50" width="16.10" height="16.53" fill="rgb(0, 255, 255)" />
    <rect x="-25.10" y="-51.50" width="16.10" height="16.53" fill="rgb(0, 255, 255)" />
    <rect x="-9.00" y="-51.50" width="16.10" height="16.53" fill="rgb(0, 255, 255)" />
    <rect x="7.10" y="-51.50" width="16.10" height="16.53" fill="rgb(0, 255, 255)" />
    <rect x="23.20" y="-51.50" width="16.10" height="16.53" fill="rgb(0, 255, 255)" />
    <rect x="39.30" y="-51.50" width="16.10" height="16.53" fill="rgb(0, 255, 255)" />
    <rect x="55.40" y="-51.50" width="16.10" height="16.53" fill="rgb(0, 255, 255)" />
    <rect x="71.50" y="-51.50" width="16.10" height="16.53" fill="rgb(0, 255, 255)" />
    <rect x="87.60" y="-51.50" width="16.10" height="16.53" fill="rgb(0, 255, 255)" />
    <rect x="103.70" y="-51.50" width="16.10" height="16.53" fill="rgb(0, 255, 255)" />
    <rect x="119.80" y="-51.50" width="16.10" height="16.53" fill="rgb(0, 255, 255)" />
    <rect x="135.90" y="-51.50" width="16.10" height="16.53" fill="rgb(0, 255, 255)" />
    <rect x="-170.00" y="-34.97" width="16.10" height="16.53" fill="rgb(0, 255, 255)" />
    <rect x="-153.90" y="-34.97" width="16.10" height="16.53" fill="rgb(0, 255, 255)" />
    <rect x="-137.80" y="-34.97" width="16.10" height="16.53" fill="rgb(0, 255, 255)" />
    <rect x="-121.70" y="-34.97" width="16.10" height="16.53" fill="rgb(0, 255, 255)" />
    <rect x="-105.60" y="-34.97" width="16.10" height="16.53" fill="rgb(0, 255, 255)" />
    <rect x="-89.50" y="-34.97" width="16.10" height="16.53" fill="rgb(0, 255, 255)" />
    <rect x="-73.40" y="-34.97" width="16.10" height="16.53" fill="rgb(0, 255, 255)" />
    <rect x="-57.30" y="-34.97" width="16.10" height="16.53" fill="rgb(0, 255, 255)" />
    <rect x="-41.20" y="-34.97" width="16.10" height="16.53" fill="rgb(0, 255, 255)" />
    <rect x="-25.10" y="-34.97" width="16.10" height="16.53" fill="rgb(125, 130, 130)" />
    <rect x="-9.00" y="-34.97" width="16.10" height="16.53" fill="rgb(0, 255, 255)" />
    <rect x="7.10" y="-34.97" width="16.10" height="16.53" fill="rgb(0, 255, 255)" />
    <rect x="23.20" y="-34.97" width="16.10" height="16.53" fill="rgb(0, 255, 255)" />
    <rect x="39.30" y="-34.97" width="16.10" height="16.53" fill="rgb(0, 255, 255)" />
    <rect x="55.40" y="-34.97" width="16.10" height="16.53" fill="rgb(0, 255, 255)" />
    <rect x="71.50" y="-34.97" width="16.10" height="16.53" fill="rgb(0, 255, 255)" />
    <rect x="87.60" y="-34.97" width="16.10" height="16.53" fill="rgb(0, 255, 255)" />
    <rect x="103.70" y="-34.97" width="16.10" height="16.53" fill="rgb(0, 255, 255)" />
    <rect x="119.80" y="-34.97" width="16.10" height="16.53" fill="rgb(0, 255, 255)" />
    <rect x="135.90" y="-34.97" width="16.10" height="16.53" fill="rgb(0, 255, 255)" />
    <rect x="-170.00" y="-18.44" width="16.10" height="16.53" fill="rgb(0, 255, 255)" />
    <rect x="-153.90" y="-18.44" width="16.10" height="16.53" fill="rgb(0, 255, 255)" />
    <rect x="-137.80" y="-18.44" width="16.10" height="16.53" fill="rgb(0, 255, 255)" />
    <rect x="-121.70" y="-18.44" width="16.10" height="16.53" fill="rgb(0, 255, 255)" />
    <rect x="-105.60" y="-18.44" width="16.10" height="16.53" fill="rgb(0, 255, 255)" />
    <rect x="-89.50" y="-18.44" width="16.10" height="16.53" fill="rgb(0, 255, 255)" />
    <rect x="-73.40" y="-18.44" width="16.10" height="16.53" fill="rgb(0, 255, 255)" />
    <rect x="-57.30" y="-18.44" width="16.10" height="16.53" fill="rgb(0, 255, 255)" />
    <rect x="-41.20" y="-18.44" width="16.10" height="16.53" fill="rgb(0, 255, 255)" />
    <rect x="-25.10" y="-18.44" width="16.10" height="16.53" fill="rgb(97, 158, 158)" />
    <rect x="-9.00" y="-18.44" width="16.10" height="16.53" fill="rgb(0, 255, 255)" />
    <rect x="7.10" y="-18.44" width="16.10" height="16.53" fill="rgb(0, 255, 255)" />
    <rect x="23.20" y="-18.44" width="16.10" height="16.53" fill="rgb(0, 255, 255)" />
    <rect x="39.30" y="-18.44" width="16.10" height="16.53" fill="rgb(0, 255, 255)" />
    <rect x="55.40" y="-18.44" width="16.10" height="16.53" fill="rgb(0, 255, 255)" />
    <rect x="71.50" y="-18.44" width="16.10" height="16.53" fill="rgb(0, 255, 255)" />
    <rect x="87.60" y="-18.44" width="16.10" height="16.53" fill="rgb(0, 255, 255)" />
    <rect x="103.70" y="-18.44" width="16.10" height="16.53" fill="rgb(0, 255, 255)" />
    <rect x="119.80" y="-18.44" width="16.10" height="16.53" fill="rgb(0, 255, 255)" />
    <rect x="135.90" y="-18.44" width="16.10" height="16.53" fill="rgb(0, 255, 255)" />
    <rect x="-170.00" y="-1.92" width="16.10" height="16.53" fill="rgb(0, 255, 255)" />
    <rect x="-153.90" y="-1.92" width="16.10" height="16.53" fill="rgb(23, 232, 232)" />
    <rect x="-137.80" y="-1.92" width="16.10" height="16.53" fill="rgb(31, 224, 224)" />
    <rect x="-121.70" y="-1.92" width="16.10" height="16.53" fill="rgb(31, 224, 224)" />
    <rect x="-105.60" y="-1.92" width="16.10" height="16.53" fill="rgb(30, 225, 225)" />
    <rect x="-89.50" y="-1.92" width="16.10" height="16.53" fill="rgb(0, 255, 255)" />
    <rect x="-73.40" y="-1.92" width="16.10" height="16.53" fill="rgb(0, 255, 255)" />
    <rect x="-57.30" y="-1.92" width="16.10" height="16.53" fill="rgb(25, 230, 230)" />
    <rect x="-41.20" y="-1.92" width="16.10" height="16.53" fill="rgb(46, 209, 209)" />
    <rect x="-25.10" y="-1.92" width="16.10" height="16.53" fill="rgb(46, 209, 209)" />
    <rect x="-9.00" y="-1.92" width="16.10" height="16.53" fill="rgb(46, 209, 209)" />
    <rect x="7.10" y="-1.92" width="16.10" height="16.53" fill="rgb(9, 246, 246)" />
    <rect x="23.20" y="-1.92" width="16.10" height="16.53" fill="rgb(102, 153, 153)" />
    <rect x="39.30" y="-1.92" width="16.10" height="16.53" fill="rgb(115, 140, 140)" />
    <rect x="55.40" y="-1.92" width="16.10" height="16.53" fill="rgb(0, 255, 255)" />
    <rect x="71.50" y="-1.92" width="16.10" height="16.53" fill="rgb(179, 76, 76)" />
    <rect x="87.60" y="-1.92" width="16.10" height="16.53" fill="rgb(185, 70, 70)" />
    <rect x="103.70" y="-1.92" width="16.10" height="16.53" fill="rgb(185, 70, 70)" />
    <rect x="119.80" y="-1.92" width="16.10" height="16.53" fill="rgb(139, 116, 116)" />
    <rect x="135.90" y="-1.92" width="16.10" height="16.53" fill="rgb(0, 255, 255)" />
    <rect x="-170.00" y="14.61" width="16.10" height="16.53" fill="rgb(0, 255, 255)" />
    <rect x="-153.90" y="14.61" width="16.10" height="16.53" fill="rgb(150, 105, 105)" />
    <rect x="-137.80" y="14.61" width="16.10" height="16.53" fill="rgb(201, 54, 54)" />
    <rect x="-121.70" y="14.61" width="16.10" height="16.53" fill="rgb(201, 54, 54)" />
    <rect x="-105.60" y="14.61" width="16.10" height="16.53" fill="rgb(195, 60, 60)" />
    <rect x="-89.50" y="14.61" width="16.10" height="16.53" fill="rgb(0, 255, 255)" />
    <rect x="-73.40" y="14.61" width="16.10" height="16.53" fill="rgb(0, 255, 255)" />
    <rect x="-57.30" y="14.61" width="16.10" height="16.53" fill="rgb(101, 154, 154)" />
    <rect x="-41.20" y="14.61" width="16.10" height="16.53" fill="rgb(185, 70, 70)" />
    <rect x="-25.10" y="14.61" width="16.10" height="16.53" fill="rgb(185, 70, 70)" />
    <rect x="-9.00" y="14.61" width="16.10" height="16.53" fill="rgb(185, 70, 70)" />
    <rect x="7.10" y="14.61" width="16.10" height="16.53" fill="rgb(35, 220, 220)" />
    <rect x="23.20" y="14.61" width="16.10" height="16.53" fill="rgb(5, 250, 250)" />
    <rect x="39.30" y="14.61" width="16.10" height="16.53" fill="rgb(6, 249, 249)" />
    <rect x="55.40" y="14.61" width="16.10" height="16.53" fill="rgb(0, 255, 255)" />
    <rect x="71.50" y="14.61" width="16.10" height="16.53" fill="rgb(45, 210, 210)" />
    <rect x="87.60" y="14.61" width="16.10" height="16.53" fill="rgb(46, 209, 209)" />
    <rect x="103.70" y="14.61" width="16.10" height="16.53" fill="rgb(46, 209, 209)" />
    <rect x="119.80" y="14.61" width="16.10" height="16.53" fill="rgb(35, 220, 220)" />
    <rect x="135.90" y="14.61" width="16.10" height="16.53" fill="rgb(0, 255, 255)" />
    <rect x="-170.00" y="31.14" width="16.10" height="16.53" fill="rgb(0, 255, 255)" />
    <rect x="-153.90" y="31.14" width="16.10" height="16.53" fill="rgb(0, 255, 255)" />
    <rect x="-137.80" y="31.14" width="16.10" height="16.53" fill="rgb(0, 255, 255)" />
    <rect x="-121.70" y="31.14" width="16.10" height="16.53" fill="rgb(0, 255, 255)" />
    <rect x="-105.60" y="31.14" width="16.10" height="16.53" fill="rgb(0, 255, 255)" />
    <rect x="-89.50" y="31.14" width="16.10" height="16.53" fill="rgb(0, 255, 255)" />
    <rect x="-73.40" y="31.14" width="16.10" height="16.53" fill="rgb(0, 255, 255)" />
    <rect x="-57.30" y="31.14" width="16.10" height="16.53" fill="rgb(0, 255, 255)" />
    <rect x="-41.20" y="31.14" width="16.10" height="16.53" fill="rgb(0, 255, 255)" />
    <rect x="-25.10" y="31.14" width="16.10" height="16.53" fill="rgb(0, 255, 255)" />
    <rect x="-9.00" y="31.14" width="16.10" height="16.53" fill="rgb(0, 255, 255)" />
    <rect x="7.10" y="31.14" width="16.10" height="16.53" fill="rgb(0, 255, 255)" />
    <rect x="23.20" y="31.14" width="16.10" height="16.53" fill="rgb(0, 255, 255)" />
    <rect x="39.30" y="31.14" width="16.10" height="16.53" fill="rgb(0, 255, 255)" />
    <rect x="55.40" y="31.14" width="16.10" height="16.53" fill="rgb(0, 255, 255)" />
    <rect x="71.50" y="31.14" width="16.10" height="16.53" fill="rgb(0, 255, 255)" />
    <rect x="87.60" y="31.14" width="16.10" height="16.53" fill="rgb(0, 255, 255)" />
    <rect x="103.70" y="31.14" width="16.10" height="16.53" fill="rgb(0, 255, 255)" />
    <rect x="119.80" y="31.14" width="16.10" height="16.53" fill="rgb(0, 255, 255)" />
    <rect x="135.90" y="31.14" width="16.10" height="16.53" fill="rgb(0, 255, 255)" />
    <rect x="-170.00" y="47.67" width="16.10" height="16.53" fill="rgb(0, 255, 255)" />
    <rect x="-153.90" y="47.67" width="16.10" height="16.53" fill="rgb(0, 255, 255)" />
    <rect x="-137.80" y="47.67" width="16.10" height="16.53" fill="rgb(0, 255, 255)" />
    <rect x="-121.70" y="47.67" width="16.10" height="16.53" fill="rgb(0, 255, 255)" />
    <rect x="-105.60" y="47.67" width="16.10" height="16.53" fill="rgb(0, 255, 255)" />
    <rect x="-89.50" y="47.67" width="16.10" height="16.53" fill="rgb(0, 255, 255)" />
    <rect x="-73.40" y="47.67" width="16.10" height="16.53" fill="rgb(0, 255, 255)" />
    <rect x="-57.30" y="47.67" width="16.10" height="16.53" fill="rgb(0, 255, 255)" />
    <rect x="-41.20" y="47.67" width="16.10" height="16.53" fill="rgb(0, 255, 255)" />
    <rect x="-25.10" y="47.67" width="16.10" height="16.53" fill="rgb(0, 255, 255)" />
    <rect x="-9.00" y="47.67" width="16.10" height="16.53" fill="rgb(0, 255, 255)" />
    <rect x="7.10" y="47.67" width="16.10" height="16.53" fill="rgb(0, 255, 255)" />
    <rect x="23.20" y="47.67" width="16.10" height="16.53" fill="rgb(0, 255, 255)" />
    <rect x="39.30" y="47.67" width="16.10" height="16.53" fill="rgb(0, 255, 255)" />
    <rect x="55.40" y="47.67" width="16.10" height="16.53" fill="rgb(0, 255, 255)" />
    <rect x="71.50" y="47.67" width="16.10" height="16.53" fill="rgb(0, 255, 255)" />
    <rect x="87.60" y="47.67" width="16.10" height="16.53" fill="rgb(0, 255, 255)" />
    <rect x="103.70" y="47.67" width="16.10" height="16.53" fill="rgb(0, 255, 255)" />
    <rect x="119.80" y="47.67" width="16.10" height="16.53" fill="rgb(0, 255, 255)" />
    <rect x="135.90" y="47.67" width="16.10" height="16.53" fill="rgb(0, 255, 255)" />
    <rect x="-170.00" y="64.19" width="16.10" height="16.53" fill="rgb(0, 255, 255)" />
    <rect x="-153.90" y="64.19" width="16.10" height="16.53" fill="rgb(0, 255, 255)" />
    <rect x="-137.80" y="64.19" width="16.10" height="16.53" fill="rgb(0, 255, 255)" />
    <rect x="-121.70" y="64.19" width="16.10" height="16.53" fill="rgb(0, 255, 255)" />
    <rect x="-105.60" y="64.19" width="16.10" height="16.53" fill="rgb(0, 255, 255)" />
    <rect x="-89.50" y="64.19" width="16.10" height="16.53" fill="rgb(0, 255, 255)" />
    <rect x="-73.40" y="64.19" width="16.10" height="16.53" fill="rgb(0, 255, 255)" />
    <rect x="-57.30" y="64.19" width="16.10" height="16.53" fill="rgb(0, 255, 255)" />
    <rect x="-41.20" y="64.19" width="16.10" height="16.53" fill="rgb(0, 255, 255)" />
    <rect x="-25.10" y="64.19" width="16.10" height="16.53" fill="rgb(0, 255, 255)" />
    <rect x="-9.00" y="64.19" width="16.10" height="16.53" fill="rgb(0, 255, 255)" />
    <rect x="7.10" y="64.19" width="16.10" height="16.53" fill="rgb(0, 255, 255)" />
    <rect x="23.20" y="64.19" width="16.10" height="16.53" fill="rgb(0, 255, 255)" />
    <rect x="39.30" y="64.19" width="16.10" height="16.53" fill="rgb(0, 255, 255)" />
    <rect x="55.40" y="64.19" width="16.10" height="16.53" fill="rgb(0, 255, 255)" />
    <rect x="71.50" y="64.19" width="16.10" height="16.53" fill="rgb(0, 255, 255)" />
    <rect x="87.60" y="64.19" width="16.10" height="16.53" fill="rgb(0, 255, 255)" />
    <rect x="103.70" y="64.19" width="16.10" height="16.53" fill="rgb(0, 255, 255)" />
    <rect x="119.80" y="64.19" width="16.10" height="16.53" fill="rgb(0, 255, 255)" />
    <rect x="135.90" y="64.19" width="16.10" height="16.53" fill="rgb(0, 255, 255)" />
    <rect x="-170.00" y="80.72" width="16.10" height="16.53" fill="rgb(0, 255, 255)" />
    <rect x="-153.90" y="80.72" width="16.10" height="16.53" fill="rgb(0, 255, 255)" />
    <rect x="-137.80" y="80.72" width="16.10" height="16.53" fill="rgb(0, 255, 255)" />
    <rect x="-121.70" y="80.72" width="16.10" height="16.53" fill="rgb(0, 255, 255)" />
    <rect x="-105.60" y="80.72" width="16.10" height="16.53" fill="rgb(0, 255, 255)" />
    <rect x="-89.50" y="80.72" width="16.10" height="16.53" fill="rgb(0, 255, 255)" />
    <rect x="-73.40" y="80.72" width="16.10" height="16.53" fill="rgb(0, 255, 255)" />
    <rect x="-57.30" y="80.72" width="16.10" height="16.53" fill="rgb(0, 255, 255)" />
    <rect x="-41.20" y="80.72" width="16.10" height="16.53" fill="rgb(0, 255, 255)" />
    <rect x="-25.10" y="80.72" width="16.10" height="16.53" fill="rgb(0, 255, 255)" />
    <rect x="-9.00" y="80.72" width="16.10" height="16.53" fill="rgb(0, 255, 255)" />
    <rect x="7.10" y="80.72" width="16.10" height="16.53" fill="rgb(0, 255, 255)" />
    <rect x="23.20" y="80.72" width="16.10" height="16.53" fill="rgb(0, 255, 255)" />
    <rect x="39.30" y="80.72" width="16.10" height="16.53" fill="rgb(0, 255, 255)" />
    <rect x="55.40" y="80.72" width="16.10" height="16.53" fill="rgb(0, 255, 255)" />
    <rect x="71.50" y="80.72" width="16.10" height="16.53" fill="rgb(0, 255, 255)" />
    <rect x="87.60" y="80.72" width="16.10" height="16.53" fill="rgb(0, 255, 255)" />
    <rect x="103.70" y="80.72" width="16.10" height="16.53" fill="rgb(0, 255, 255)" />
    <rect x="119.80" y="80.72" width="16.10" height="16.53" fill="rgb(0, 255, 255)" />
    <rect x="135.90" y="80.72" width="16.10" height="16.53" fill="rgb(0, 255, 255)" />
    <rect x="-170.00" y="97.25" width="16.10" height="16.53" fill="rgb(0, 255, 255)" />
    <rect x="-153.90" y="97.25" width="16.10" height="16.53" fill="rgb(0, 255, 255)" />
    <rect x="-137.80" y="97.25" width="16.10" height="16.53" fill="rgb(0, 255, 255)" />
    <rect x="-121.70" y="97.25" width="16.10" height="16.53" fill="rgb(0, 255, 255)" />
    <rect x="-105.60" y="97.25" width="16.10" height="16.53" fill="rgb(0, 255, 255)" />
    <rect x="-89.50" y="97.25" width="16.10" height="16.53" fill="rgb(0, 255, 255)" />
    <rect x="-73.40" y="97.25" width="16.10" height="16.53" fill="rgb(0, 255, 255)" />
    <rect x="-57.30" y="97.25" width="16.10" height="16.53" fill="rgb(0, 255, 255)" />
    <rect x="-41.20" y="97.25" width="16.10" height="16.53" fill="rgb(0, 255, 255)" />
    <rect x="-25.10" y="97.25" width="16.10" height="16.53" fill="rgb(0, 255, 255)" />
    <rect x="-9.00" y="97.25" width="16.10" height="16.53" fill="rgb(0, 255, 255)" />
    <rect x="7.10" y="97.25" width="16.10" height="16.53" fill="rgb(0, 255, 255)" />
    <rect x="23.20" y="97.25" width="16.10" height="16.53" fill="rgb(0, 255, 255)" />
    <rect x="39.30" y="97.25" width="16.10" height="16.53" fill="rgb(0, 255, 255)" />
    <rect x="55.40" y="97.25" width="16.10" height="16.53" fill="rgb(0, 255, 255)" />
    <rect x="71.50" y="97.25" width="16.10" height="16.53" fill="rgb(0, 255, 255)" />
    <rect x="87.60" y="97.25" width="16.10" height="16.53" fill="rgb(0, 255, 255)" />
    <rect x="103.70" y="97.25" width="16.10" height="16.53" fill="rgb(0, 255, 255)" />
    <rect x="119.80" y="97.25" width="16.10" height="16.53" fill="rgb(0, 255, 255)" />
    <rect x="135.90" y="97.25" width="16.10" height="16.53" fill="rgb(0, 255, 255)" />
    <rect x="-170.00" y="113.78" width="16.10" height="16.53" fill="rgb(0, 255, 255)" />
    <rect x="-153.90" y="113.78" width="16.10" height="16.53" fill="rgb(0, 255, 255)" />
    <rect x="-137.80" y="113.78" width="16.10" height="16.53" fill="rgb(0, 255, 255)" />
    <rect x="-121.70" y="113.78" width="16.10" height="16.53" fill="rgb(0, 255, 255)" />
    <rect x="-105.60" y="113.78" width="16.10" height="16.53" fill="rgb(0, 255, 255)" />
    <rect x="-89.50" y="113.78" width="16.10" height="16.53" fill="rgb(0, 255, 255)" />
    <rect x="-73.40" y="113.78" width="16.10" height="16.53" fill="rgb(0, 255, 255)" />
    <rect x="-57.30" y="113.78" width="16.10" height="16.53" fill="rgb(0, 255, 255)" />
    <rect x="-41.20" y="113.78" width="16.10" height="16.53" fill="rgb(0, 255, 255)" />
    <rect x="-25.10" y="113.78" width="16.10" height="16.53" fill="rgb(0, 255, 255)" />
    <rect x="-9.00" y="113.78" width="16.10" height="16.53" fill="rgb(0, 255, 255)" />
    <rect x="7.10" y="113.78" width="16.10" height="16.53" fill="rgb(0, 255, 255)" />
    <rect x="23.20" y="113.78" width="16.10" height="16.53" fill="rgb(0, 255, 255)" />
    <rect x="39.30" y="113.78" width="16.10" height="16.53" fill="rgb(0, 255, 255)" />
    <rect x="55.40" y="113.78" width="16.10" height="16.53" fill="rgb(0, 255, 255)" />
    <rect x="71.50" y="113.78" width="16.10" height="16.53" fill="rgb(0, 255, 255)" />
    <rect x="87.60" y="113.78" width="16.10" height="16.53" fill="rgb(0, 255, 255)" />
    <rect x="103.70" y="113.78" width="16.10" height="16.53" fill="rgb(0, 255, 255)" />
    <rect x="119.80" y="113.78" width="16.10" height="16.53" fill="rgb(0, 255, 255)" />
    <rect x="135.90" y="113.78" width="16.10" height="16.53" fill="rgb(0, 255, 255)" />
    <rect x="-170.00" y="130.31" width="16.10" height="16.53" fill="rgb(0, 255, 255)" />
    <rect x="-153.90" y="130.31" width="16.10" height="16.53" fill="rgb(0, 255, 255)" />
    <rect x="-137.80" y="130.31" width="16.10" height="16.53" fill="rgb(0, 255, 255)" />
    <rect x="-121.70" y="130.31" width="16.10" height="16.53" fill="rgb(0, 255, 255)" />
    <rect x="-105.60" y="130.31" width="16.10" height="16.53" fill="rgb(0, 255, 255)" />
    <rect x="-89.50" y="130.31" width="16.10" height="16.53" fill="rgb(0, 255, 255)" />
    <rect x="-73.40" y="130.31" width="16.10" height="16.53" fill="rgb(0, 255, 255)" />
    <rect x="-57.30" y="130.31" width="16.10" height="16.53" fill="rgb(0, 255, 255)" />
    <rect x="-41.20" y="130.31" width="16.10" height="16.53" fill="rgb(0, 255, 255)" />
    <rect x="-25.10" y="130.31" width="16.10" height="16.53" fill="rgb(0, 255, 255)" />
    <rect x="-9.00" y="130.31" width="16.10" height="16.53" fill="rgb(0, 255, 255)" />
    <rect x="7.10" y="130.31" width="16.10" height="16.53" fill="rgb(0, 255, 255)" />
    <rect x="23.20" y="130.31" width="16.10" height="16.53" fill="rgb(0, 255, 255)" />
    <rect x="39.30" y="130.31" width="16.10" height="16.53" fill="rgb(0, 255, 255)" />
    <rect x="55.40" y="130.31" width="16.10" height="16.53" fill="rgb(0, 255, 255)" />
    <rect x="71.50" y="130.31" width="16.10" height="16.53" fill="rgb(0, 255, 255)" />
    <rect x="87.60" y="130.31" width="16.10" height="16.53" fill="rgb(0, 255, 255)" />
    <rect x="103.70" y="130.31" width="16.10" height="16.53" fill="rgb(0, 255, 255)" />
    <rect x="119.80" y="130.31" width="16.10" height="16.53" fill="rgb(0, 255, 255)" />
    <rect x="135.90" y="130.31" width="16.10" height="16.53" fill="rgb(0, 255, 255)" />
    <rect x="-170.00" y="146.83" width="16.10" height="16.53" fill="rgb(0, 255, 255)" />
    <rect x="-153.90" y="146.83" width="16.10" height="16.53" fill="rgb(0, 255, 255)" />
    <rect x="-137.80" y="146.83" width="16.10" height="16.53" fill="rgb(0, 255, 255)" />
    <rect x="-121.70" y="146.83" width="16.10" height="16.53" fill="rgb(0, 255, 255)" />
    <rect x="-105.60" y="146.83" width="16.10" height="16.53" fill="rgb(0, 255, 255)" />
    <rect x="-89.50" y="146.83" width="16.10" height="16.53" fill="rgb(0, 255, 255)" />
    <rect x="-73.40" y="146.83" width="16.10" height="16.53" fill="rgb(0, 255, 255)" />
    <rect x="-57.30" y="146.83" width="16.10" height="16.53" fill="rgb(0, 255, 255)" />
    <rect x="-41.20" y="146.83" width="16.10" height="16.53" fill="rgb(0, 255, 255)" />
    <rect x="-25.10" y="146.83" width="16.10" height="16.53" fill="rgb(0, 255, 255)" />
    <rect x="-9.00" y="146.83" width="16.10" height="16.53" fill="rgb(0, 255, 255)" />
    <rect x="7.10" y="146.83" width="16.10" height="16.53" fill="rgb(0, 255, 255)" />
    <rect x="23.20" y="146.83" width="16.10" height="16.53" fill="rgb(0, 255, 255)" />
    <rect x="39.30" y="146.83" width="16.10" height="16.53" fill="rgb(0, 255, 255)" />
    <rect x="55.40" y="146.83" width="16.10" height="16.53" fill="rgb(0, 255, 255)" />
    <rect x="71.50" y="146.83" width="16.10" height="16.53" fill="rgb(0, 255, 255)" />
    <rect x="87.60" y="146.83" width="16.10" height="16.53" fill="rgb(0, 255, 255)" />
    <rect x="103.70" y="146.83" width="16.10" height="16.53" fill="rgb(0, 255, 255)" />
    <rect x="119.80" y="146.83" width="16.10" height="16.53" fill="rgb(0, 255, 255)" />
    <rect x="135.90" y="146.83" width="16.10" height="16.53" fill="rgb(0, 255, 255)" />
    <rect x="-170.00" y="163.36" width="16.10" height="16.53" fill="rgb(0, 255, 255)" />
    <rect x="-153.90" y="163.36" width="16.10" height="16.53" fill="rgb(0, 255, 255)" />
    <rect x="-137.80" y="163.36" width="16.10" height="16.53" fill="rgb(0, 255, 255)" />
    <rect x="-121.70" y="163.36" width="16.10" height="16.53" fill="rgb(0, 255, 255)" />
    <rect x="-105.60" y="163.36" width="16.10" height="16.53" fill="rgb(0, 255, 255)" />
    <rect x="-89.50" y="163.36" width="16.10" height="16.53" fill="rgb(0, 255, 255)" />
    <rect x="-73.40" y="163.36" width="16.10" height="16.53" fill="rgb(0, 255, 255)" />
    <rect x="-57.30" y="163.36" width="16.10" height="16.53" fill="rgb(0, 255, 255)" />
    <rect x="-41.20" y="163.36" width="16.10" height="16.53" fill="rgb(0, 255, 255)" />
    <rect x="-25.10" y="163.36" width="16.10" height="16.53" fill="rgb(0, 255, 255)" />
    <rect x="-9.00" y="163.36" width="16.10" height="16.53" fill="rgb(0, 255, 255)" />
    <rect x="7.10" y="163.36" width="16.10" height="16.53" fill="rgb(0, 255, 255)" />
    <rect x="23.20" y="163.36" width="16.10" height="16.53" fill="rgb(0, 255, 255)" />
    <rect x="39.30" y="163.36" width="16.10" height="16.53" fill="rgb(0, 255, 255)" />
    <rect x="55.40" y="163.36" width="16.10" height="16.53" fill="rgb(0, 255, 255)" />
    <rect x="71.50" y="163.36" width="16.10" height="16.53" fill="rgb(0, 255, 255)" />
    <rect x="87.60" y="163.36" width="16.10" height="16.53" fill="rgb(0, 255, 255)" />
    <rect x="103.70" y="163.36" width="16.10" height="16.53" fill="rgb(0, 255, 255)" />
    <rect x="119.80" y="163.36" width="16.10" height="16.53" fill="rgb(0, 255, 255)" />
    <rect x="135.90" y="163.36" width="16.10" height="16.53" fill="rgb(0, 255, 255)" />
    <rect x="-170.00" y="179.89" width="16.10" height="16.53" fill="rgb(0, 255, 255)" />
    <rect x="-153.90" y="179.89" width="16.10" height="16.53" fill="rgb(0, 255, 255)" />
    <rect x="-137.80" y="179.89" width="16.10" height="16.53" fill="rgb(0, 255, 255)" />
    <rect x="-121.70" y="179.89" width="16.10" height="16.53" fill="rgb(0, 255, 255)" />
    <rect x="-105.60" y="179.89" width="16.10" height="16.53" fill="rgb(0, 255, 255)" />
    <rect x="-89.50" y="179.89" width="16.10" height="16.53" fill="rgb(0, 255, 255)" />
    <rect x="-73.40" y="179.89" width="16.10" height="16.53" fill="rgb(0, 255, 255)" />
    <rect x="-57.30" y="179.89" width="16.10" height="16.53" fill="rgb(0, 255, 255)" />
    <rect x="-41.20" y="179.89" width="16.10" height="16.53" fill="rgb(0, 255, 255)" />
    <rect x="-25.10" y="179.89" width="16.10" height="16.53" fill="rgb(0, 255, 255)" />
    <rect x="-9.00" y="179.89" width="16.10" height="16.53" fill="rgb(0, 255, 255)" />
    <rect x="7.10" y="179.89" width="16.10" height="16.53" fill="rgb(0, 255, 255)" />
    <rect x="23.20" y="179.89" width="16.10" height="16.53" fill="rgb(0, 255, 255)" />
    <rect x="39.30" y="179.89" width="16.10" height="16.53" fill="rgb(0, 255, 255)" />
    <rect x="55.40" y="179.89" width="16.10" height="16.53" fill="rgb(0, 255, 255)" />
    <rect x="71.50" y="179.89" width="16.10" height="16.53" fill="rgb(0, 255, 255)" />
    <rect x="87.60" y="179.89" width="16.10" height="16.53" fill="rgb(0, 255, 255)" />
    <rect x="103.70" y="179.89" width="16.10" height="16.53" fill="rgb(0, 255, 255)" />
    <rect x="119.80" y="179.89" width="16.10" height="16.53" fill="rgb(0, 255, 255)" />
    <rect x="135.90" y="179.89" width="16.10" height="16.53" fill="rgb(0, 255, 255)" />
    <rect x="-170.00" y="196.42" width="16.10" height="16.53" fill="rgb(0, 255, 255)" />
    <rect x="-153.90" y="196.42" width="16.10" height="16.53" fill="rgb(0, 255, 255)" />
    <rect x="-137.80" y="196.42" width="16.10" height="16.53" fill="rgb(0, 255, 255)" />
    <rect x="-121.70" y="196.42" width="16.10" height="16.53" fill="rgb(0, 255, 255)" />
    <rect x="-105.60" y="196.42" width="16.10" height="16.53" fill="rgb(0, 255, 255)" />
    <rect x="-89.50" y="196.42" width="16.10" height="16.53" fill="rgb(0, 255, 255)" />
    <rect x="-73.40" y="196.42" width="16.10" height="16.53" fill="rgb(0, 255, 255)" />
    <rect x="-57.30" y="196.42" width="16.10" height="16.53" fill="rgb(0, 255, 255)" />
    <rect x="-41.20" y="196.42" width="16.10" height="16.53" fill="rgb(0, 255, 255)" />
    <rect x="-25.10" y="196.42" width="16.10" height="16.53" fill="rgb(0, 255, 255)" />
    <rect x="-9.00" y="196.42" width="16.10" height="16.53" fill="rgb(0, 255, 255)" />
    <rect x="7.10" y="196.42" width="16.10" height="16.53" fill="rgb(0, 255, 255)" />
    <rect x="23.20" y="196.42" width="16.10" height="16.53" fill="rgb(0, 255, 255)" />
    <rect x="39.30" y="196.42" width="16.10" height="16.53" fill="rgb(0, 255, 255)" />
    <rect x="55.40" y="196.42" width="16.10" height="16.53" fill="rgb(0, 255, 255)" />
    <rect x="71.50" y="196.42" width="16.10" height="16.53" fill="rgb(0, 255, 255)" />
    <rect x="87.60" y="196.42" width="16.10" height="16.53" fill="rgb(0, 255, 255)" />
    <rect x="103.70" y="196.42" width="16.10" height="16.53" fill="rgb(0, 255, 255)" />
    <rect x="119.80" y="196.42" width="16.10" height="16.53" fill="rgb(0, 255, 255)" />
    <rect x="135.90" y="196.42" width="16.10" height="16.53" fill="rgb(0, 255, 255)" />
    <rect x="-170.00" y="212.94" width="16.10" height="16.53" fill="rgb(0, 255, 255)" />
    <rect x="-153.90" y="212.94" width="16.10" height="16.53" fill="rgb(0, 255, 255)" />
    <rect x="-137.80" y="212.94" width="16.10" height="16.53" fill="rgb(0, 255, 255)" />
    <rect x="-121.70" y="212.94" width="16.10" height="16.53" fill="rgb(0, 255, 255)" />
    <rect x="-105.60" y="212.94" width="16.10" height="16.53" fill="rgb(0, 255, 255)" />
    <rect x="-89.50" y="212.94" width="16.10" height="16.53" fill="rgb(0, 255, 255)" />
    <rect x="-73.40" y="212.94" width="16.10" height="16.53" fill="rgb(0, 255, 255)" />
    <rect x="-57.30" y="212.94" width="16.10" height="16.53" fill="rgb(0, 255, 255)" />
    <rect x="-41.20" y="212.94" width="16.10" height="16.53" fill="rgb(0, 255, 255)" />
    <rect x="-25.10" y="212.94" width="16.10" height="16.53" fill="rgb(12, 243, 243)" />
    <rect x="-9.00" y="212.94" width="16.10" height="16.53" fill="rgb(185, 70, 70)" />
    <rect x="7.10" y="212.94" width="16.10" height="16.53" fill="rgb(35, 220, 220)" />
    <rect x="23.20" y="212.94" width="16.10" height="16.53" fill="rgb(0, 255, 255)" />
    <rect x="39.30" y="212.94" width="16.10" height="16.53" fill="rgb(0, 255, 255)" />
    <rect x="55.40" y="212.94" width="16.10" height="16.53" fill="rgb(0, 255, 255)" />
    <rect x="71.50" y="212.94" width="16.10" height="16.53" fill="rgb(0, 255, 255)" />
    <rect x="87.60" y="212.94" width="16.10" height="16.53" fill="rgb(0, 255, 255)" />
    <rect x="103.70" y="212.94" width="16.10" height="16.53" fill="rgb(0, 255, 255)" />
    <rect x="119.80" y="212.94" width="16.10" height="16.53" fill="rgb(0, 255, 255)" />
    <rect x="135.90" y="212.94" width="16.10" height="16.53" fill="rgb(0, 255, 255)" />
    <rect x="-170.00" y="229.47" width="16.10" height="16.53" fill="rgb(0, 255, 255)" />
    <rect x="-153.90" y="229.47" width="16.10" height="16.53" fill="rgb(0, 255, 255)" />
    <rect x="-137.80" y="229.47" width="16.10" height="16.53" fill="rgb(0, 255, 255)" />
    <rect x="-121.70" y="229.47" width="16.10" height="16.53" fill="rgb(0, 255, 255)" />
    <rect x="-105.60" y="229.47" width="16.10" height="16.53" fill="rgb(0, 255, 255)" />
    <rect x="-89.50" y="229.47" width="16.10" height="16.53" fill="rgb(0, 255, 255)" />
    <rect x="-73.40" y="229.47" width="16.10" height="16.53" fill="rgb(0, 255, 255)" />
    <rect x="-57.30" y="229.47" width="16.10" height="16.53" fill="rgb(0, 255, 255)" />
    <rect x="-41.20" y="229.47" width="16.10" height="16.53" fill="rgb(0, 255, 255)" />
    <rect x="-25.10" y="229.47" width="16.10" height="16.53" fill="rgb(0, 255, 255)" />
    <rect x="-9.00" y="229.47" width="16.10" height="16.53" fill="rgb(0, 255, 255)" />
    <rect x="7.10" y="229.47" width="16.10" height="16.53" fill="rgb(0, 255, 255)" />
    <rect x="23.20" y="229.47" width="16.10" height="16.53" fill="rgb(0, 255, 255)" />
    <rect x="39.30" y="229.47" width="16.10" height="16.53" fill="rgb(0, 255, 255)" />
    <rect x="55.40" y="229.47" width="16.10" height="16.53" fill="rgb(0, 255, 255)" />
    <rect x="71.50" y="229.47" width="16.10" height="16.53" fill="rgb(0, 255, 255)" />
    <rect x="87.60" y="229.47" width="16.10" height="16.53" fill="rgb(0, 255, 255)" />
    <rect x="103.70" y="229.47" width="16.10" height="16.53" fill="rgb(0, 255, 255)" />
    <rect x="119.80" y="229.47" width="16.10" height="16.53" fill="rgb(0, 255, 255)" />
    <rect x="135.90" y="229.47" width="16.10" height="16.53" fill="rgb(0, 255, 255)" />
  </g>
  <g id="global-paths" stroke="purple" stroke-width="0.8" stroke-dasharray="2,2" fill="none">
  </g>

<g fill="none" id="nets" stroke="blue" stroke-width="0.8">
<line x1="-19.75" x2="-20.00004681683596" y1="-19.75" y2="-19.75"/>
<line x1="-20.00004681683596" x2="-20.00004681683596" y1="-19.75" y2="-19.999989543902377"/>
<line x1="-20.00004681683596" x2="-50.25" y1="-19.999989543902377" y2="-19.999989543902377"/>
<line x1="-50.25" x2="-50.25" y1="-19.999989543902377" y2="-19.75"/>
<line x1="-50.25" x2="-50.25" y1="-19.75" y2="19.25"/>
<line x1="-50.25" x2="-49.75" y1="19.25" y2="19.25"/>
<line x1="-49.75" x2="-49.99997866458623" y1="19.25" y2="19.25"/>
<line x1="-49.99997866458623" x2="-49.99997866458623" y1="19.25" y2="18.99998538225444"/>
<line x1="10.25" x2="9.99996765611177" y1="19.25" y2="19.25"/>
<line x1="9.99996765611177" x2="9.99996765611177" y1="19.25" y2="18.999998093217503"/>
<line x1="10.25" x2="10.25" y1="19.25" y2="16.25"/>
<line x1="10.25" x2="10.25" y1="16.25" y2="11.25"/>
<line x1="10.25" x2="27.75" y1="16.25" y2="16.25"/>
<line x1="27.75" x2="28.25" y1="16.25" y2="16.25"/>
<line x1="27.75" x2="27.75" y1="16.25" y2="10.25"/>
<line x1="27.75" x2="27.99999189947942" y1="10.25" y2="10.25"/>
<line x1="27.99999189947942" x2="27.99999189947942" y1="10.25" y2="10.000025256721798"/>
<line x1="27.99999189947942" x2="28.25" y1="10.000025256721798" y2="10.000025256721798"/>
<line x1="28.25" x2="28.25" y1="10.000025256721798" y2="10.25"/>
<line x1="10.25" x2="-149.75" y1="16.25" y2="16.25"/>
<line x1="-149.75" x2="-150.25" y1="16.25" y2="16.25"/>
<line x1="-149.75" x2="-149.99995049177866" y1="16.25" y2="16.25"/>
<line x1="-149.99995049177866" x2="-149.99995049177866" y1="16.25" y2="20.00002699375467"/>
<line x1="-149.99995049177866" x2="-149.75" y1="20.00002699375467" y2="20.00002699375467"/>
<line x1="-149.75" x2="-149.75" y1="20.00002699375467" y2="20.25"/>
<line x1="-149.75" x2="-150.25" y1="20.25" y2="20.25"/>
<line x1="-150.25" x2="-150.25" y1="16.25" y2="11.25"/>
<line x1="52.25" x2="52.000019762989446" y1="10.25" y2="10.25"/>
<line x1="52.000019762989446" x2="52.000019762989446" y1="10.25" y2="10.000034400878986"/>
<line x1="52.25" x2="71.99997782499597" y1="10.25" y2="10.25"/>
<line x1="71.99997782499597" x2="71.99997782499597" y1="10.25" y2="9.999982210777414"/>
<line x1="71.99997782499597" x2="72.25" y1="9.999982210777414" y2="9.999982210777414"/>
<line x1="72.25" x2="72.25" y1="9.999982210777414" y2="10.25"/>
<line x1="0.00004550346145445044" x2="0.25" y1="220.00004696068893" y2="220.00004696068893"/>
<line x1="0.25" x2="0.25" y1="220.00004696068893" y2="220.25"/>
<line x1="0.25" x2="0.25" y1="220.25" y2="83.25"/>
<line x1="0.25" x2="-89.75" y1="83.25" y2="83.25"/>
<line x1="-89.75" x2="-89.75" y1="83.25" y2="20.25"/>
<line x1="-89.75" x2="-90.00003777078406" y1="20.25" y2="20.25"/>
<line x1="-90.00003777078406" x2="-90.00003777078406" y1="20.25" y2="19.99997749613774"/>
<line x1="0.25" x2="132.25" y1="83.25" y2="83.25"/>
<line x1="132.25" x2="131.99999904825867" y1="83.25" y2="83.25"/>
<line x1="131.99999904825867" x2="131.99999904825867" y1="83.25" y2="9.999981848177185"/>
</g>
<g transform="translate(-120 20) rotate(0 0 0)">
<g fill="none" stroke="black" stroke-width="1">
<line x1="-30" x2="-20" y1="0" y2="0"/>
<line x1="20" x2="30" y1="0" y2="0"/>
<path d="M -20 0 L -13.32 7.5 L -6.68 -7.5 L 0 7.5 L 6.68 -7.5 L 13.32 7.5 L 20 0"/>
</g>
<text alignment-baseline="hanging" fill="black" font-family="monospace" font-size="10" text-anchor="middle" x="0" y="4">
R3
R3
</text>
</g>
<g transform="translate(0 220) rotate(0 0 0)">
<g fill="black" stroke="black" stroke-width="1">
<line x1="0" x2="0" y1="0" y2="4"/>
<line x1="-10" x2="10" y1="4" y2="4"/>
<line x1="-6" x2="6" y1="8" y2="8"/>
<line x1="-3" x2="3" y1="12" y2="12"/>
</g>
<text alignment-baseline="hanging" fill="black" font-family="monospace" font-size="10" text-anchor="middle" x="0" y="-10">
G1
G1
</text>
</g>
<g transform="translate(40 10) rotate(0 0 0)">
<g fill="none" stroke="black" stroke-width="1">
<line x1="-12" x2="-2" y1="0" y2="0"/>
<line x1="2" x2="12" y1="0" y2="0"/>
<line x1="-2" x2="-2" y1="-5" y2="5"/>
<line x1="2" x2="2" y1="-5" y2="5"/>
</g>
<text alignment-baseline="hanging" fill="black" font-family="monospace" font-size="10" text-anchor="middle" x="0" y="4">
C1
C1
</text>
</g>
<g transform="translate(102 10) rotate(0 0 0)">
<g fill="none" stroke="black" stroke-width="1">
<line x1="-30" x2="-20" y1="0" y2="0"/>
<line x1="20" x2="30" y1="0" y2="0"/>
<path d="M -20 0 L -13.32 7.5 L -6.68 -7.5 L 0 7.5 L 6.68 -7.5 L 13.32 7.5 L 20 0"/>
</g>
<text alignment-baseline="hanging" fill="black" font-family="monospace" font-size="10" text-anchor="middle" x="0" y="4">
R2
R2
</text>
</g>
<g transform="translate(-20 19) rotate(0 0 0)">
<g fill="none" stroke="black" stroke-width="1">
<line x1="-30" x2="-20" y1="0" y2="0"/>
<line x1="20" x2="30" y1="0" y2="0"/>
<path d="M -20 0 L -13.32 7.5 L -6.68 -7.5 L 0 7.5 L 6.68 -7.5 L 13.32 7.5 L 20 0"/>
</g>
<text alignment-baseline="hanging" fill="black" font-family="monospace" font-size="10" text-anchor="middle" x="0" y="4">
R1
R1
</text>
</g>
<g transform="translate(-20 -20) rotate(0 0 0)">
<g fill="black" stroke="black" stroke-width="1">
<line x1="0" x2="0" y1="0" y2="-4"/>
<path d="M-5,-4 L5,-4 L0,-19 z"/>
</g>
<text alignment-baseline="hanging" fill="black" font-family="monospace" font-size="10" text-anchor="middle" x="0" y="15.5">
V1
V1
</text>
</g>
</svg>