<?xml version="1.0" encoding="UTF-8"?>
<svg width="150" height="50" viewBox="-35 -25 150 50" xmlns="http://www.w3.org/2000/svg">
<defs><style type="text/css"><![CDATA[
.component { fill: white; stroke: black; stroke-width: 1.5; }
.component-text { font-family: Arial, sans-serif; font-size: 10px; text-anchor: middle; fill: black; }
.pin { fill: none; stroke: red; stroke-width: 1; }
.net { fill: none; stroke: blue; stroke-width: 1.2; }
.net-label { font-family: Arial, sans-serif; font-size: 8px; fill: blue; }
.grid { stroke: #f0f0f0; stroke-width: 0.5; opacity: 0.5; }
.debug-bbox { fill: none; stroke: red; stroke-width: 0.5; stroke-dasharray: 2,2; opacity: 0.7; }
.debug-text { font-family: monospace; font-size: 6px; fill: red; }
]]></style></defs>
<line x1="-40" y1="-25" x2="-40" y2="25" class="grid"/>
<line x1="-20" y1="-25" x2="-20" y2="25" class="grid"/>
<line x1="0" y1="-25" x2="0" y2="25" class="grid"/>
<line x1="20" y1="-25" x2="20" y2="25" class="grid"/>
<line x1="40" y1="-25" x2="40" y2="25" class="grid"/>
<line x1="60" y1="-25" x2="60" y2="25" class="grid"/>
<line x1="80" y1="-25" x2="80" y2="25" class="grid"/>
<line x1="100" y1="-25" x2="100" y2="25" class="grid"/>
<line x1="-35" y1="-40" x2="115" y2="-40" class="grid"/>
<line x1="-35" y1="-20" x2="115" y2="-20" class="grid"/>
<line x1="-35" y1="0" x2="115" y2="0" class="grid"/>
<line x1="-35" y1="20" x2="115" y2="20" class="grid"/>
<line x1="95" y1="0" x2="-15" y2="0" class="net"/>
<circle cx="95" cy="0" r="1.5" class="pin"/>
<circle cx="-15" cy="0" r="1.5" class="pin"/>
<text x="100" y="-5" class="net-label">SIGNAL</text>
<g transform="translate(0, 0)"><g>
            <rect x="-15" y="-5" width="30" height="10" fill="white" stroke="black" stroke-width="1.5"/>
            <line x1="-20" y1="0" x2="-15" y2="0" stroke="black" stroke-width="1.5"/>
            <line x1="15" y1="0" x2="20" y2="0" stroke="black" stroke-width="1.5"/>
            <text x="0" y="20" text-anchor="middle" font-size="8" fill="black">R</text>
        </g></g>
<text x="0" y="17" class="component-text">R1</text>
<circle cx="15" cy="0" r="2" class="pin"/>
<text x="20" y="-3" class="pin-label">2</text>
<circle cx="-15" cy="0" r="2" class="pin"/>
<text x="-10" y="-3" class="pin-label">1</text>
<g transform="translate(80, 0)"><g>
            <rect x="-15" y="-5" width="30" height="10" fill="white" stroke="black" stroke-width="1.5"/>
            <line x1="-20" y1="0" x2="-15" y2="0" stroke="black" stroke-width="1.5"/>
            <line x1="15" y1="0" x2="20" y2="0" stroke="black" stroke-width="1.5"/>
            <text x="0" y="20" text-anchor="middle" font-size="8" fill="black">R</text>
        </g></g>
<text x="80" y="17" class="component-text">R1</text>
<circle cx="65" cy="0" r="2" class="pin"/>
<text x="70" y="-3" class="pin-label">1</text>
<circle cx="95" cy="0" r="2" class="pin"/>
<text x="100" y="-3" class="pin-label">2</text>
<rect x="-15" y="-5" width="30" height="10" class="debug-bbox"/>
<text x="-15" y="-10" class="debug-text">ID:InstanceId(2v1)</text>
<rect x="65" y="-5" width="30" height="10" class="debug-bbox"/>
<text x="65" y="-10" class="debug-text">ID:InstanceId(1v1)</text>
<rect x="-35" y="-25" width="150" height="50" class="debug-bbox"/>
<text x="-35" y="-35" class="debug-text">Layout: 150x50, 2 components, 1 nets</text>
</svg>
